<svg width="53" height="26" viewBox="0 0 53 26" fill="none" xmlns="http://www.w3.org/2000/svg">
<path d="M0 9C0 4.02944 4.02944 0 9 0H53V17C53 21.9706 48.9706 26 44 26H9C4.02944 26 0 21.9706 0 17V9Z" fill="#333333"/>
<path d="M19.9203 18H18.1854L13.7349 10.9052V18H12V8H13.7349L18.1991 15.1223V8H19.9203V18Z" fill="white"/>
<path d="M27.8063 13.5357H23.7056V16.6126H28.4989V18H21.9707V8H28.4509V9.4011H23.7056V12.1621H27.8063V13.5357Z" fill="white"/>
<path d="M37.7427 15.5275L39.2788 8H41L38.6959 18H37.0364L35.1369 10.6992L33.1963 18H31.5299L29.2258 8H30.947L32.4968 15.5137L34.4032 8H35.8569L37.7427 15.5275Z" fill="white"/>
</svg>
