<svg width="85" height="114" viewBox="0 0 85 114" fill="none" xmlns="http://www.w3.org/2000/svg">
<path fill-rule="evenodd" clip-rule="evenodd" d="M26.375 34.5625C25.2014 34.5625 24.25 35.5139 24.25 36.6875V71.0625C24.25 72.2361 25.2014 73.1875 26.375 73.1875H60.75C61.9236 73.1875 62.875 72.2361 62.875 71.0625V36.6875C62.875 35.5139 61.9236 34.5625 60.75 34.5625H26.375ZM22.25 36.6875C22.25 34.4093 24.0968 32.5625 26.375 32.5625H60.75C63.0282 32.5625 64.875 34.4093 64.875 36.6875V71.0625C64.875 73.3407 63.0282 75.1875 60.75 75.1875H26.375C24.0968 75.1875 22.25 73.3407 22.25 71.0625V36.6875Z" fill="#7D7D7D"/>
<path fill-rule="evenodd" clip-rule="evenodd" d="M17 38.8125C17.5523 38.8125 18 39.2602 18 39.8125V77.3125C18 77.8761 18.2239 78.4166 18.6224 78.8151C19.0209 79.2136 19.5614 79.4375 20.125 79.4375H57.625C58.1773 79.4375 58.625 79.8852 58.625 80.4375C58.625 80.9898 58.1773 81.4375 57.625 81.4375H20.125C19.031 81.4375 17.9818 81.0029 17.2082 80.2293C16.4346 79.4557 16 78.4065 16 77.3125V39.8125C16 39.2602 16.4477 38.8125 17 38.8125Z" fill="#7D7D7D"/>
<path fill-rule="evenodd" clip-rule="evenodd" d="M33.4062 45.0625C33.8787 45.0625 34.3317 45.2502 34.6658 45.5842C34.9998 45.9183 35.1875 46.3713 35.1875 46.8438C35.1875 47.1958 35.0831 47.54 34.8876 47.8329C34.6921 48.1257 34.4142 48.354 34.089 48.489C33.7638 48.6239 33.4059 48.6595 33.0605 48.5911C32.7151 48.5228 32.3977 48.3536 32.1484 48.105C31.8991 47.8563 31.7291 47.5394 31.6598 47.1942C31.5905 46.8489 31.6251 46.4909 31.7592 46.1654C31.8933 45.8398 32.1209 45.5613 32.4132 45.365C32.7055 45.1687 33.0494 45.0634 33.4015 45.0625L33.4062 45.0625Z" fill="#7D7D7D"/>
<path fill-rule="evenodd" clip-rule="evenodd" d="M47.0874 51.2493C47.4577 51.0572 47.8694 50.9586 48.2866 50.962C48.7037 50.9654 49.1138 51.0706 49.481 51.2686C49.8482 51.4666 50.1615 51.7513 50.3935 52.098L50.396 52.1016L58.4585 64.2599C58.6621 64.5669 58.6804 64.961 58.5062 65.2855C58.332 65.6101 57.9934 65.8126 57.6251 65.8126H32.6709C32.302 65.8126 31.9631 65.6095 31.7891 65.2842C31.6151 64.959 31.6343 64.5643 31.8391 64.2575L37.1431 56.3099C37.34 56.0147 37.5963 55.7632 37.8953 55.5722C38.1945 55.381 38.5301 55.2541 38.8809 55.1995C39.2317 55.1449 39.59 55.1638 39.9331 55.2549C40.2762 55.3461 40.5966 55.5076 40.8741 55.7291L42.6191 57.1243L46.1615 52.0638L46.163 52.0617C46.4005 51.7198 46.7178 51.4409 47.0874 51.2493ZM48.2704 52.9619C48.1791 52.9612 48.089 52.9828 48.0079 53.0248C47.9269 53.0668 47.8573 53.128 47.8053 53.2031L47.8026 53.2069L43.6464 59.1444C43.4879 59.3707 43.2429 59.5214 42.9695 59.5608C42.696 59.6001 42.4185 59.5245 42.2027 59.352L39.6261 57.292C39.5653 57.2435 39.4946 57.2078 39.4195 57.1879C39.3442 57.1679 39.2656 57.1637 39.1886 57.1757C39.1115 57.1877 39.0379 57.2155 38.9722 57.2575C38.9065 57.2995 38.8503 57.3546 38.8071 57.4195L34.5405 63.8126H55.7621L48.7316 53.2106L48.7307 53.2093C48.68 53.134 48.6118 53.0721 48.5318 53.029C48.4515 52.9857 48.3617 52.9627 48.2704 52.9619Z" fill="#7D7D7D"/>
</svg>
